<svg xmlns="http://www.w3.org/2000/svg" viewBox="0 0 640 360" fill="none">
  <rect width="640" height="360" rx="12" fill="#111111"/>
  <rect x="24" y="24" width="592" height="40" rx="6" fill="#1a1a1a"/>
  <rect x="24" y="80" width="180" height="256" rx="8" fill="#1f1f1f"/>
  <rect x="220" y="80" width="396" height="256" rx="8" fill="#1a1a1a"/>
  <circle cx="114" cy="130" r="24" fill="#89d185" opacity="0.7"/>
  <circle cx="114" cy="200" r="24" fill="#f48771" opacity="0.7"/>
  <circle cx="114" cy="270" r="24" fill="#d7ba7d" opacity="0.7"/>
  <rect x="240" y="100" width="360" height="16" rx="4" fill="#333"/>
  <rect x="240" y="130" width="300" height="8" rx="2" fill="#333"/>
  <rect x="240" y="160" width="340" height="120" rx="6" fill="#1f1f1f"/>
  <polyline points="260,250 300,210 340,230 380,180 420,200 460,160 500,190 540,150" stroke="#89d185" stroke-width="2" fill="none"/>
  <text x="320" y="310" text-anchor="middle" fill="#89d185" font-family="Consolas, monospace" font-size="14" opacity="0.5">Network Health</text>
</svg>
